<?xml version="1.0" encoding="utf-8"?>
<svg xmlns="http://www.w3.org/2000/svg" xmlns:xlink="http://www.w3.org/1999/xlink" width="100" height="100">
  <path transform="translate(50, 50)" fill="#DDDDDD" d="M26 -50L26 -22.45L25 -23.55L20.85 -27.1L20.85 -50L26 -50M23.4 -21.1L24.15 -20.65L25 -19.65Q34 -9.8 34 3.65Q34 18 24.15 28.1Q23.7 28.2 23.6 28.55L20.1 31.55L20.1 31.8Q11.35 38.1 0.05 38.1Q-7.05 38.1 -13.2 35.65Q-16.7 34 -20 31.8L-24.05 28.1L-24.35 27.65L-24.8 27.35L-26.2 25.65L-28.75 22.2Q-30.8 18.9 -32.15 15.35Q-34 9.9 -34 3.65Q-34 -10.55 -24.05 -20.65Q-14.05 -30.8 0.05 -30.8Q11.25 -30.8 19.9 -24.35L23.4 -21.1M-6.2 -1.65Q-7.3 0.1 -7.3 2.1Q-7.3 4 -6.3 5.45L-5.1 7.2L-4.75 7.55Q-2.7 9.45 0.05 9.45Q3 9.45 5.1 7.2L5.4 6.8Q7.2 4.8 7.2 2.1Q7.2 -0.65 5.4 -2.8L5.1 -3.1L3.35 -4.35Q1.7 -5.35 0.05 -5.35Q-2.9 -5.35 -5.1 -3.1L-6.2 -1.65M-4 26.55Q-2.35 28.2 0.05 28.2Q2.25 28.2 3.9 26.55L4.2 26.2Q5.4 24.65 5.4 22.55Q5.4 20.2 3.9 18.65Q2.25 16.9 0.05 16.9Q-2.35 16.9 -4 18.65L-4.75 19.65Q-5.5 21 -5.5 22.55Q-5.5 24.8 -4 26.55M-20 34.65L-25.55 49.9L-29.5 48.2L-23.5 31.8L-20 34.65M20.1 34.55L23.6 31.55L29.85 48.35L25.8 50L25.7 49.9L20.1 34.65L20.1 34.55" />
</svg>
