<?xml version="1.0" encoding="utf-8"?>
<svg xmlns="http://www.w3.org/2000/svg" xmlns:xlink="http://www.w3.org/1999/xlink" width="100px" height="100px">
  <g transform="translate(50, 50)">
    <path style="fill:#333" d="M50 -50L50 -27.8L49.6 -27.8L48.5 -27.9L48.4 -28L45.7 -27.7L43.5 -27.8L42.9 -28L42.6 -27.8L41.6 -27.8Q40.1 -27.8 39.1 -28.8L39 -28.9L38.3 -29.8L38 -31.1L37.7 -31.3L34.9 -31.3L32.2 -33.8L32.2 -35L30.4 -36.2L30.4 -41.5L32.2 -41.7L32.2 -43.7L33 -44.4L32 -47.1L29.8 -46.6L27.5 -48.5L27.5 -50L47.1 -50L48.4 -49.8L49.3 -50L50 -50M-10 -23.1L-10.3 -23.6L-13.1 -30.6L-13.3 -31.3L-16.8 -32.6L-17.1 -33.5L-18.6 -37.9L-21.2 -39L-25.2 -50L25.1 -50L20.9 -39L18.3 -37.9L16.8 -33.5L16.6 -32.6L13.1 -31.3L10 -23.6L9.7 -23.1L5.8 -22L4.4 -21.6L3.9 -19.1L-4.1 -19.1L-4.7 -21.6L-6.1 -22L-10 -23.1M-32.5 -41.7L-30.7 -41.5L-30.7 -36.2L-32.5 -35L-32.5 -33.8L-35.2 -31.3L-38 -31.3L-38.3 -31.1L-38.6 -29.8L-39.4 -28.9Q-40.4 -27.8 -41.9 -27.8L-42.9 -27.8L-43.2 -28L-43.7 -27.8L-45.9 -27.7L-48.6 -28L-48.8 -27.9L-49.9 -27.8L-50 -27.8L-50 -50L-49.5 -50L-48.6 -49.8L-47.4 -50L-27.8 -50L-27.8 -48.5L-30 -46.6L-32.3 -47.1L-33.3 -44.4L-32.5 -43.7L-32.5 -41.7" />
    <path style="fill:#DDD" d="M9.7 -23.1L10 -23.6L13.1 -31.3L16.6 -32.6L16.8 -33.5L26.6 -30.6L27.5 -27.8L31.6 -26.7L36.5 -10.2L37.1 -8.6L32.6 -7.2L33.2 -5.8L33.7 -5.8L35.7 -4.7L35.7 -2.1L38.6 -0.9L38.6 5.5L36.3 6.4L36.7 10L39.5 10.4L42.7 36.9L47.6 40.8L48.7 48.1L44.2 48.1L44.3 49.2L39.7 49.2L34 50L25.5 50L19.8 49.2L15.3 49.2L15.4 48.1L11.1 48.1L12.1 40.2L16.8 36.9L20.1 10.4L22.4 10.1L22.6 8.6L20.2 7.3L20.2 3.9L22.5 3L20.9 2.2L20.9 -3.4L20.4 -3.4L16.8 7.8L15.2 7.8L6.7 -9.5L6.7 -16.4L9.8 -17.9L5.8 -22L9.7 -23.1M-6.1 -22L-10.1 -17.9L-7 -16.4L-7 -9.5L-15.4 7.8L-17.1 7.8L-20.7 -3.4L-21.2 -3.4L-21.2 2.2L-22.8 3L-20.5 3.9L-20.5 7.3L-22.9 8.6L-22.7 10.1L-20.4 10.4L-17 36.9L-12.4 40.2L-11.4 48.1L-15.7 48.1L-15.5 49.2L-20 49.2L-25.9 50L-34.2 50L-40 49.2L-44.6 49.2L-44.5 48.1L-49 48.1L-47.9 40.8L-43 36.9L-39.8 10.4L-37.1 10L-36.6 6.4L-39 5.5L-39 -0.9L-35.9 -2.1L-35.9 -4.7L-34 -5.8L-33.4 -5.8L-33 -7.2L-37.3 -8.6L-36.7 -10.2L-31.9 -26.7L-27.7 -27.8L-26.9 -30.6L-17.1 -33.5L-16.8 -32.6L-13.3 -31.3L-13.1 -30.6L-10.3 -23.6L-10 -23.1L-6.1 -22" />
  </g>
</svg>
