<?xml version="1.0" encoding="utf-8"?>
<svg xmlns="http://www.w3.org/2000/svg" xmlns:xlink="http://www.w3.org/1999/xlink" width="100" height="100">
  <path transform="translate(50, 50)" fill="#DDDDDD" d="M-40 -50L40 -50L40 -41.85L-40 -41.85L-40 -50M34.8 -37.85L34.8 24.35L-34.8 24.35L-34.8 -37.85L34.8 -37.85M21.8 9.8L-20.2 9.8L-20.2 -22.55L21.8 -22.55L21.8 9.8M25.2 -26.1L-23.6 -26.1L-23.6 13.35L25.2 13.35L25.2 -26.1M-3.9 32.4L-11.6 32.4L-11.6 45.9L-3.9 45.9L-3.9 32.4M0 45.9L7.7 45.9L7.7 32.4L0 32.4L0 45.9M-15.1 32.4L-22.8 32.4L-22.8 41.2L-18.3 45.9L-15.1 45.9L-15.1 32.4M-26 28.45L34.8 28.45L34.8 50L-18.7 50L-26 42.25L-26 28.45M31 32.4L23.2 32.4L23.2 45.9L31 45.9L31 32.4M19.4 45.9L19.4 32.4L11.6 32.4L11.6 45.9L19.4 45.9" />
</svg>
