<?xml version="1.0" encoding="utf-8"?>
<svg xmlns="http://www.w3.org/2000/svg" xmlns:xlink="http://www.w3.org/1999/xlink" width="100px" height="100px">
  <g transform="translate(50, 50)">
    <path style="fill:#333" d="M8.65 -0.55L17.65 -23.2L19.85 -28.15L6.35 -34.65L4.45 -33L-23.7 -33L-35.85 -44.45L-35.85 -50L15.65 -50L16.3 -47.9L21.1 -45.85L23.5 -48.6L36.8 -48.6L39 -45.25L50 -45.95L50 50L-2.45 50L-1.2 45.75L6.85 43.85L8.35 39.3L26.85 34.35L24.05 26.85L19 24.95L10.95 4.9L8.65 -0.55M-21 9.25L-19.85 9.15L-18.7 9.25L-17.1 10.25Q-16.05 11.3 -16.05 12.8Q-16.05 14.3 -17.1 15.5Q-18.15 16.65 -19.85 16.65Q-21.4 16.65 -22.35 15.7L-22.65 15.5Q-23.7 14.3 -23.6 12.8Q-23.7 11.3 -22.65 10.25L-21 9.25M-9.05 22.5Q-7.9 23.6 -7.9 24.95Q-7.9 26.65 -9.05 27.75Q-10.1 28.75 -11.85 28.75Q-13.45 28.75 -14.6 27.75Q-15.85 26.65 -15.85 25.15Q-15.85 23.6 -14.6 22.5L-14.4 22.5Q-13.25 21.4 -11.75 21.4Q-10.4 21.4 -9.25 22.5L-9.05 22.5M-19.85 33.7Q-18.15 33.7 -17.1 34.75Q-16.05 35.95 -16.05 37.45Q-16.05 38.55 -16.5 39.4L-17.1 39.9Q-18.15 41.1 -19.85 41.1Q-21.4 41.1 -22.35 40L-22.65 39.9L-22.95 39.4Q-23.6 38.55 -23.7 37.45Q-23.6 35.95 -22.65 34.85L-22.35 34.75Q-21.4 33.7 -19.85 33.7M-32.8 9.85L-32.3 10.25Q-31.15 11.3 -31.15 12.8Q-31.15 14.3 -32.3 15.4L-32.8 15.95Q-33.65 16.65 -34.9 16.65Q-36.4 16.65 -37.55 15.5Q-38.7 14.3 -38.7 12.8Q-38.7 11.3 -37.55 10.25Q-36.4 9.15 -34.9 9.15Q-33.65 9.15 -32.8 9.85M-45.5 22.2Q-44.55 21.4 -43.2 21.4Q-41.7 21.4 -40.55 22.5Q-39.2 23.6 -39.2 24.95Q-39.2 26.65 -40.55 27.75Q-41.7 28.75 -43.2 28.75Q-44.35 28.75 -45.4 28.25L-45.5 27.95L-45.9 27.75Q-47.05 26.65 -47.05 25.15Q-47.05 23.6 -45.9 22.5L-45.8 22.5L-45.8 22.4L-45.5 22.2M-32.8 34.35L-32.3 34.75Q-31.15 35.95 -31.15 37.45Q-31.15 38.55 -31.45 39.4L-32.3 39.9L-32.8 40.4L-33.75 40.8L-34.9 41.1Q-36.4 41.1 -37.55 39.9L-38.25 39.4L-38.7 38.15L-38.7 37.45Q-38.7 35.95 -37.55 34.75Q-36.4 33.7 -34.9 33.7Q-33.65 33.7 -32.8 34.35" />
    <path style="fill:#DDD" d="M10.95 4.9L6.55 4.9L6.55 8.85L2.35 12.2L-1.8 11.3L-3.7 15.95L-2.35 16.95L-2.35 20.35L1.1 20.8L1.1 29.9L-2.35 31.8L-2.35 33.8L-7.25 38.05L-12.6 38.05L-13.05 38.35L-13.25 39.4L-13.55 40.2L-15.2 42Q-16.9 43.85 -19.85 43.85L-21.7 43.75L-22.35 43.35L-23.3 43.75L-25.7 44.05L-27.5 44.05L-31.75 43.55L-32.4 43.35L-32.8 43.55L-34.9 43.85Q-37.75 43.85 -39.75 42L-41.3 39.4L-41.7 38.35L-42.75 37.05L-43.2 36.85L-45.5 33.2L-46.1 31.5L-46.55 30.9L-48 29.7Q-50 27.85 -50 25.15Q-50 22.5 -48 20.6L-47.25 19.95L-46.55 19.45L-46.1 18.75L-45.3 16.35L-43.2 13.6L-41.7 11.8Q-41.3 9.85 -39.75 8.35L-38.25 7.15Q-36.9 6.5 -35.75 6.5L-34.2 6.5L-32.4 6.85L-27.5 6.2L-25.5 6.2L-24.35 6.5L-15.35 4.8L-15.2 0.85L-31.75 -4L-31.75 -14.5L-21.7 -24.1L0.7 -24.1L3.6 -21.4L17.65 -23.2L8.65 -0.55L10.95 4.9M-22.65 10.25Q-23.7 11.3 -23.6 12.8Q-23.7 14.3 -22.65 15.5L-22.35 15.7Q-21.4 16.65 -19.85 16.65Q-18.15 16.65 -17.1 15.5Q-16.05 14.3 -16.05 12.8Q-16.05 11.3 -17.1 10.25L-18.7 9.25L-19.85 9.15L-21 9.25L-22.65 10.25M-9.25 22.5Q-10.4 21.4 -11.75 21.4Q-13.25 21.4 -14.4 22.5L-14.6 22.5Q-15.85 23.6 -15.85 25.15Q-15.85 26.65 -14.6 27.75Q-13.45 28.75 -11.85 28.75Q-10.1 28.75 -9.05 27.75Q-7.9 26.65 -7.9 24.95Q-7.9 23.6 -9.05 22.5L-9.25 22.5M-22.35 34.75L-22.65 34.85Q-23.6 35.95 -23.7 37.45Q-23.6 38.55 -22.95 39.4L-22.65 39.9L-22.35 40Q-21.4 41.1 -19.85 41.1Q-18.15 41.1 -17.1 39.9L-16.5 39.4Q-16.05 38.55 -16.05 37.45Q-16.05 35.95 -17.1 34.75Q-18.15 33.7 -19.85 33.7Q-21.4 33.7 -22.35 34.75M-34.9 9.15Q-36.4 9.15 -37.55 10.25Q-38.7 11.3 -38.7 12.8Q-38.7 14.3 -37.55 15.5Q-36.4 16.65 -34.9 16.65Q-33.65 16.65 -32.8 15.95L-32.3 15.4Q-31.15 14.3 -31.15 12.8Q-31.15 11.3 -32.3 10.25L-32.8 9.85Q-33.65 9.15 -34.9 9.15M-45.8 22.4L-45.8 22.5L-45.9 22.5Q-47.05 23.6 -47.05 25.15Q-47.05 26.65 -45.9 27.75L-45.5 27.95L-45.4 28.25Q-44.35 28.75 -43.2 28.75Q-41.7 28.75 -40.55 27.75Q-39.2 26.65 -39.2 24.95Q-39.2 23.6 -40.55 22.5Q-41.7 21.4 -43.2 21.4Q-44.55 21.4 -45.5 22.2L-45.8 22.4M-34.9 33.7Q-36.4 33.7 -37.55 34.75Q-38.7 35.95 -38.7 37.45L-38.7 38.15L-38.25 39.4L-37.55 39.9Q-36.4 41.1 -34.9 41.1L-33.75 40.8L-32.8 40.4L-32.3 39.9L-31.45 39.4Q-31.15 38.55 -31.15 37.45Q-31.15 35.95 -32.3 34.75L-32.8 34.35Q-33.65 33.7 -34.9 33.7" />
  </g>
</svg>
