<svg xmlns="http://www.w3.org/2000/svg" xmlns:xlink="http://www.w3.org/1999/xlink" width="100" height="100"><g><path fill="#DDD" d="M-12.2 -39.2Q-13.6 -37.7 -13.6 -35.6L-13.3 -33.6L-12.2 -32L-10.4 -30.7L-6.7 -30.7L-4.9 -32Q-3.5 -33.4 -3.5 -35.6Q-3.5 -37.7 -4.9 -39.2Q-5.9 -40.2 -7.1 -40.5L-8.6 -40.7Q-10.6 -40.7 -12.2 -39.2M-22.3 -40.7Q-24.6 -40.7 -25.8 -39.2Q-27.4 -37.7 -27.4 -35.6Q-27.4 -33.4 -25.8 -32Q-24.6 -30.5 -22.3 -30.5Q-20.2 -30.5 -18.7 -32L-17.7 -33.1Q-17.1 -34.2 -17.1 -35.6Q-17.1 -37.7 -18.7 -39.2Q-20 -40.5 -21.8 -40.7L-22.3 -40.7M-22.3 -27.1Q-24.6 -27.1 -25.8 -25.6Q-27.4 -24.1 -27.4 -21.9Q-27.4 -20.4 -26.4 -19.1L-25.8 -18.3Q-24.6 -16.8 -22.3 -16.8Q-20.2 -16.8 -18.7 -18.3Q-17.1 -19.9 -17.1 -21.9Q-17.1 -24.1 -18.7 -25.6L-19.8 -26.4Q-20.9 -27.1 -22.3 -27.1M-11.6 -26.2L-12.2 -25.6L-13 -24.4Q-13.6 -23.3 -13.6 -21.9Q-13.6 -19.9 -12.2 -18.3L-11.6 -17.7Q-10.5 -16.9 -8.9 -16.8L-8.6 -16.8Q-6.4 -16.8 -4.9 -18.3Q-3.5 -19.9 -3.5 -21.9Q-3.5 -24.1 -4.9 -25.6Q-6.4 -27.1 -8.6 -27.1Q-10.4 -27.1 -11.6 -26.2M29.7 -9.1L21.4 12.5L4.2 3.7L1.7 6L-34.5 6L-50 -9.4L-50 -34.6L-34.5 -50L1.7 -50L6.4 -45.4L6.4 -23.7L15.5 -18.9L16.9 -14.1L23.1 -11.3L26.2 -15.1L43.2 -15.1L46.1 -10.6L29.7 -9.1M-41.4 -28.8Q-41.4 -26.8 -39.6 -25.1Q-38.1 -23.7 -36 -23.7L-34.5 -23.8Q-33.2 -24.1 -32.4 -25.1L-32.2 -25.3L-31.4 -26.4Q-30.9 -27.5 -30.9 -28.8Q-30.9 -30.7 -32.2 -32.2L-32.4 -32.3Q-33.2 -33.4 -34.5 -33.9L-36 -34.1Q-38.1 -34.1 -39.6 -32.3Q-41.4 -30.9 -41.4 -28.8M-34.5 -20.1L-36 -20.2Q-38.1 -20.2 -39.6 -18.6Q-41.4 -17.4 -41.4 -15.1Q-41.4 -13.1 -39.6 -11.6Q-38.1 -10 -36 -10L-34.5 -10.3L-34.4 -10.3Q-33.2 -10.6 -32.4 -11.6L-32.2 -11.6Q-31.3 -12.8 -31 -14.1L-30.9 -15.1Q-30.9 -17.3 -32.2 -18.6L-32.4 -18.6Q-33.2 -19.8 -34.5 -20.1M-27.4 -8.3Q-27.4 -6.3 -25.8 -4.8Q-24.6 -3.1 -22.3 -3.1Q-20.2 -3.1 -18.7 -4.8Q-17.1 -6.3 -17.1 -8.3Q-17.1 -10.4 -18.7 -12.1Q-20.2 -13.4 -22.3 -13.4L-23.7 -13.2Q-25 -13 -25.8 -12.1Q-27.4 -10.4 -27.4 -8.3M-3.5 -8.3Q-3.5 -10.4 -4.9 -12.1Q-5.8 -12.9 -7 -13.2L-8.6 -13.4Q-10.4 -13.4 -11.6 -12.5L-12.2 -12.1Q-13.6 -10.4 -13.6 -8.3Q-13.6 -6.3 -12.2 -4.8L-11.6 -4.4Q-10.4 -3.1 -8.6 -3.1Q-6.4 -3.1 -4.9 -4.8Q-4 -5.8 -3.6 -7L-3.5 -8.3" transform="matrix(-1, 0, 0, 1, 50, 50)"/><path fill="#333" d="M-8.6 -40.7L-7.1 -40.5Q-5.9 -40.2 -4.9 -39.2Q-3.5 -37.7 -3.5 -35.6Q-3.5 -33.4 -4.9 -32L-6.7 -30.7L-10.4 -30.7L-12.2 -32L-13.3 -33.6L-13.6 -35.6Q-13.6 -37.7 -12.2 -39.2Q-10.6 -40.7 -8.6 -40.7M-21.8 -40.7Q-20 -40.5 -18.7 -39.2Q-17.1 -37.7 -17.1 -35.6Q-17.1 -34.2 -17.7 -33.1L-18.7 -32Q-20.2 -30.5 -22.3 -30.5Q-24.6 -30.5 -25.8 -32Q-27.4 -33.4 -27.4 -35.6Q-27.4 -37.7 -25.8 -39.2Q-24.6 -40.7 -22.3 -40.7L-21.8 -40.7M-19.8 -26.4L-18.7 -25.6Q-17.1 -24.1 -17.1 -21.9Q-17.1 -19.9 -18.7 -18.3Q-20.2 -16.8 -22.3 -16.8Q-24.6 -16.8 -25.8 -18.3L-26.4 -19.1Q-27.4 -20.4 -27.4 -21.9Q-27.4 -24.1 -25.8 -25.6Q-24.6 -27.1 -22.3 -27.1Q-20.9 -27.1 -19.8 -26.4M-8.6 -27.1Q-6.4 -27.1 -4.9 -25.6Q-3.5 -24.1 -3.5 -21.9Q-3.5 -19.9 -4.9 -18.3Q-6.4 -16.8 -8.6 -16.8L-8.9 -16.8Q-10.5 -16.9 -11.6 -17.7L-12.2 -18.3Q-13.6 -19.9 -13.6 -21.9Q-13.6 -23.3 -13 -24.4L-12.2 -25.6L-11.6 -26.2Q-10.4 -27.1 -8.6 -27.1M46.1 -10.6L50 -10.8L50 50L-29.1 50L-44.9 45.1L-44.9 30.9L-31.9 18L-3.1 18L0.7 21.6L18.7 19.2L21.4 12.5L29.7 -9.1L46.1 -10.6M-39.6 -32.3Q-38.1 -34.1 -36 -34.1L-34.5 -33.9Q-33.2 -33.4 -32.4 -32.3L-32.2 -32.2Q-30.9 -30.7 -30.9 -28.8Q-30.9 -27.5 -31.4 -26.4L-32.2 -25.3L-32.4 -25.1Q-33.2 -24.1 -34.5 -23.8L-36 -23.7Q-38.1 -23.7 -39.6 -25.1Q-41.4 -26.8 -41.4 -28.8Q-41.4 -30.9 -39.6 -32.3M-32.4 -18.6L-32.2 -18.6Q-30.9 -17.3 -30.9 -15.1L-31 -14.1Q-31.3 -12.8 -32.2 -11.6L-32.4 -11.6Q-33.2 -10.6 -34.4 -10.3L-34.5 -10.3L-36 -10Q-38.1 -10 -39.6 -11.6Q-41.4 -13.1 -41.4 -15.1Q-41.4 -17.4 -39.6 -18.6Q-38.1 -20.2 -36 -20.2L-34.5 -20.1Q-33.2 -19.8 -32.4 -18.6M-25.8 -12.1Q-25 -13 -23.7 -13.2L-22.3 -13.4Q-20.2 -13.4 -18.7 -12.1Q-17.1 -10.4 -17.1 -8.3Q-17.1 -6.3 -18.7 -4.8Q-20.2 -3.1 -22.3 -3.1Q-24.6 -3.1 -25.8 -4.8Q-27.4 -6.3 -27.4 -8.3Q-27.4 -10.4 -25.8 -12.1M-3.6 -7Q-4 -5.8 -4.9 -4.8Q-6.4 -3.1 -8.6 -3.1Q-10.4 -3.1 -11.6 -4.4L-12.2 -4.8Q-13.6 -6.3 -13.6 -8.3Q-13.6 -10.4 -12.2 -12.1L-11.6 -12.5Q-10.4 -13.4 -8.6 -13.4L-7 -13.2Q-5.8 -12.9 -4.9 -12.1Q-3.5 -10.4 -3.5 -8.3L-3.6 -7" transform="matrix(-1, 0, 0, 1, 50, 50)"/></g></svg>