<svg xmlns="http://www.w3.org/2000/svg" xmlns:xlink="http://www.w3.org/1999/xlink" width="100" height="100"><g><path fill="#333" d="M47.8 -11.4L38.9 -12.3L40.3 -14.7L49.7 -14.7L51.4 -12.7L54.8 -14.3L55.6 -16.9L60.6 -19.6L60.6 -25L75 -25L75 -3.1L63.1 -3.1L61.9 -4.3L52.3 0.6L47.8 -11.4M53.7 4.3L63.7 5.6L65.8 3.6L75 3.6L75 50.3L71.6 50.3L67.9 47.1L67.9 45.6L65.6 44.2L65.6 37.3L67.9 37L67.9 34.5L69 33.7L67.7 30.3L64.7 31L61.7 28.5L61.7 25.4L58.7 25.4L60.4 21.3L53.7 4.3M47.4 47.5L60.5 51.3L61.5 54.6L67.2 56.1L73 75L33.9 75L33.9 69.1L38 67.2L32.7 62L37.9 60.6L38.3 59.9L42.4 50.3L47 48.6L47.4 47.5M2.5 48.6L7.1 50.3L7.6 51.2L11.2 59.9L11.6 60.6L16.9 62L11.5 67.2L15.6 69.1L15.6 75L-23.2 75L-17.6 56.1L-12 54.6L-10.9 51.3L2.2 47.5L2.5 48.6M-10.8 21.3L-9.1 25.4L-12.2 25.4L-12.2 28.5L-15.1 31L-18.1 30.3L-19.4 33.7L-18.4 34.5L-18.4 37L-16 37.3L-16 44.2L-18.4 45.6L-18.4 47.1L-22 50.3L-25 50.3L-25 3.6L-16.3 3.6L-14.2 5.6L-4.3 4.3L-10.8 21.3M1.8 -11.4L-2.8 0.6L-12.3 -4.3L-13.6 -3.1L-25 -3.1L-25 -25L-11.1 -25L-11.1 -19.6L-6 -16.9L-5.3 -14.3L-1.9 -12.7L-0.1 -14.7L9.2 -14.7L10.9 -12.3L1.8 -11.4M52.6 17.7L33.9 25.4L31.3 20.1L18.4 20.1L15.7 25.4L-3 17.7L5.2 -4.5L24.7 -5.6L44.4 -4.5L52.6 17.7" transform="translate(25, 25)"/><path fill="#DDD" d="M10.9 -12.3L24.7 -12.8L38.9 -12.3L47.8 -11.4L52.3 0.6L53.7 4.3L60.4 21.3L58.7 25.4L52.9 40.6L49.2 41.9L47.4 47.5L47 48.6L42.4 50.3L38.3 59.9L37.9 60.6L32.7 62L30.9 62.5L30.1 65.7L19.5 65.7L18.7 62.5L16.9 62L11.6 60.6L11.2 59.9L7.6 51.2L7.1 50.3L2.5 48.6L2.2 47.5L0.2 41.9L-3.3 40.6L-9.1 25.4L-10.8 21.3L-4.3 4.3L-2.8 0.6L1.8 -11.4L10.9 -12.3M44.4 -4.5L24.7 -5.6L5.2 -4.5L-3 17.7L15.7 25.4L18.4 20.1L31.3 20.1L33.9 25.4L52.6 17.7L44.4 -4.5" transform="translate(25, 25)"/></g></svg>