<?xml version="1.0" encoding="utf-8"?>
<svg xmlns="http://www.w3.org/2000/svg" xmlns:xlink="http://www.w3.org/1999/xlink" width="160px" height="160px">
  <path style="opacity:0" d="M160 0L160 160L57.75 160L0 160L58.15 159.6L125.35 56.8L125.75 56.4L78.15 56.4L79.75 49.2L89.35 0.4L89.35 0L160 0M0 160L0 0L45.75 0L45.75 90L71.35 90L71.35 90.8L57.75 159.6L57.75 160" />
  <path style="fill:#0BF" d="M57.75 159.6L71.35 90.8L71.35 90L45.75 90L45.75 0L89.35 0L89.35 0.4L79.75 49.2L78.15 56.4L125.75 56.4L125.35 56.8L58.15 159.6L57.75 160L57.75 159.6" />
</svg>
