<?xml version="1.0" encoding="utf-8"?>
<svg xmlns="http://www.w3.org/2000/svg" xmlns:xlink="http://www.w3.org/1999/xlink" width="160px" height="160px">
  <path style="opacity:0" d="M80 90L105.6 90L105.6 90.8L92 159.6L92 160L92.4 159.6L159.6 56.8L160 56.4L112.4 56.4L114 49.2L123.6 0.4L123.6 0L160 0L160 56.4L160 160L92 160L0 160L0 81.95L36.15 118.1L0 0L80 0L80 90M36.15 118.1L72.3 81.95L52 81.95L52 41.95L22 41.95L22 81.95L0 81.95" />
  <path style="fill:#0Bf" d="M80 0L123.6 0L123.6 0.4L114 49.2L112.4 56.4L160 56.4L159.6 56.8L92.4 159.6L92 160L92 159.6L105.6 90.8L105.6 90L80 90L80 0M0 81.95L22 81.95L22 41.95L52 41.95L52 81.95L72.3 81.95L36.15 118.1L0 81.95" />
</svg>
