<?xml version="1.0" encoding="utf-8"?>
<svg version="1.1" id="Layer_1"
xmlns="http://www.w3.org/2000/svg"
xmlns:xlink="http://www.w3.org/1999/xlink"
width="160px" height="160px"
xml:space="preserve">
<g id="PathID_9" transform="matrix(1, 0, 0, 1, 0, 0)">
<path style="fill:#000000;fill-opacity:0.0117647" d="M30.25 87.55L30.25 118.65L47.55 118.65L47.55 87.55L77.8 87.55L77.8 70.2L47.55 70.2L47.55 39.1L30.25 39.1L30.25 70.2L0 70.2L0 0L82.7 0L82.7 90.2L108 90.2L94.7 160L160 56.4L114.25 56.4L124.9 0L160 0L160 56.4L160 160L94.7 160L0 160L0 87.55L30.25 87.55" />
<path style="fill:#00BBFF;fill-opacity:1" d="M0 87.55L0 70.2L30.25 70.2L30.25 39.1L47.55 39.1L47.55 70.2L77.8 70.2L77.8 87.55L47.55 87.55L47.55 118.65L30.25 118.65L30.25 87.55L0 87.55M82.7 0L124.9 0L114.25 56.4L160 56.4L94.7 160L108 90.2L82.7 90.2L82.7 0" />
</g>
</svg>
