<?xml version="1.0" encoding="utf-8"?>
<svg version="1.1" id="Layer_1"
xmlns="http://www.w3.org/2000/svg"
xmlns:xlink="http://www.w3.org/1999/xlink"
width="160px" height="160px"
xml:space="preserve">
<g id="PathID_15" transform="matrix(1, 0, 0, 1, 0, 0)">
<path style="fill:#FF4B00;fill-opacity:1" d="M57.35 0L103.15 0L160 21.2L160 45.9L123.75 130.35L80 160L36.2 130.35L0 45.9L0 21.2L57.35 0M59.35 6.9L5.55 26.65L5.55 43.95L40.25 124.95L80 151.6L119.75 124.95L154.95 43.45L154.95 26.65L101.1 6.9L80.5 6.9L59.35 6.9" />
<path style="fill:#7F2500;fill-opacity:1" d="M80.5 6.9L101.1 6.9L154.95 26.65L154.95 43.45L119.75 124.95L80 151.6L80.5 6.9" />
<path style="fill:#B23200;fill-opacity:1" d="M80 151.6L40.25 124.95L5.55 43.95L5.55 26.65L59.35 6.9L80.5 6.9L80 151.6" />
</g>
</svg>
