<?xml version="1.0" encoding="utf-8"?>
<svg xmlns="http://www.w3.org/2000/svg" xmlns:xlink="http://www.w3.org/1999/xlink" width="160px" height="160px">
  <path fill="#949" d="M144 39.6L147.2 44.8L134.4 52.4L149.2 60L144.4 63.2L129.2 55.2L114 64L134.8 75.2L129.6 78L108.8 67.2L86 80L108.8 93.2L129.6 82L134.8 84.8L113.6 96L129.2 105.2L144.4 96.8L149.2 100L134.4 108L146.8 115.2L144 120.4L131.2 113.2L132 130L126.8 127.2L126.4 110.4L110.8 101.2L111.6 125.2L106.4 122L105.6 98.4L82.8 85.2L82.8 111.2L103.2 124L103.2 130L82.8 117.2L82.8 135.2L97.2 144L97.2 150L82.8 140.8L82.8 155.6L76.8 155.6L76.8 140.8L62.8 150L62.8 144L76.8 135.2L76.8 117.2L56.8 130L56.8 124L76.8 111.2L76.8 85.2L54.4 98.4L53.6 122L48.4 125.2L49.2 101.2L33.6 110L33.2 127.2L28.4 130L28.8 113.2L16 120.4L13.2 115.2L25.6 108L10.8 100L16 96.8L30.8 104.8L46.4 96L25.2 84.8L30.4 82L51.2 93.2L74 80L51.6 66.8L30.4 78L25.2 75.2L46.4 64L30.8 54.8L16 63.2L10.8 60L26 52L13.2 44.8L16 39.6L28.8 46.8L28.4 30L33.2 32.8L34 50L49.2 58.8L48.4 34.8L53.6 38L54.4 61.6L77.2 74.8L77.2 48.8L56.8 36L56.8 30L77.2 42.8L77.2 24.8L62.8 16L62.8 10L77.2 19.2L77.2 4.4L83.2 4.4L83.2 19.2L97.2 10L97.2 16L83.2 24.8L83.2 42.8L103.2 30L103.2 36L83.2 48.8L83.2 75.2L105.6 62L106.4 38L111.6 34.8L110.8 58.8L126.4 50L126.8 32.8L132 30L131.6 47.2L144 39.6" />
  <path opacity="0" d="M131.6 47.2L132 30L126.8 32.8L126.4 50L110.8 58.8L111.6 34.8L106.4 38L105.6 62L83.2 75.2L83.2 48.8L103.2 36L103.2 30L83.2 42.8L83.2 24.8L97.2 16L97.2 10L83.2 19.2L83.2 4.4L77.2 4.4L77.2 19.2L62.8 10L62.8 16L77.2 24.8L77.2 42.8L56.8 30L56.8 36L77.2 48.8L77.2 74.8L54.4 61.6L53.6 38L48.4 34.8L49.2 58.8L34 50L33.2 32.8L28.4 30L28.8 46.8L16 39.6L13.2 44.8L26 52L10.8 60L16 63.2L30.8 54.8L46.4 64L25.2 75.2L30.4 78L51.6 66.8L74 80L51.2 93.2L30.4 82L25.2 84.8L46.4 96L30.8 104.8L16 96.8L10.8 100L25.6 108L13.2 115.2L16 120.4L28.8 113.2L28.4 130L33.2 127.2L33.6 110L49.2 101.2L48.4 125.2L53.6 122L54.4 98.4L76.8 85.2L76.8 111.2L56.8 124L56.8 130L76.8 117.2L76.8 135.2L62.8 144L62.8 150L76.8 140.8L76.8 155.6L82.8 155.6L82.8 140.8L97.2 150L97.2 144L82.8 135.2L82.8 117.2L103.2 130L103.2 124L82.8 111.2L82.8 85.2L105.6 98.4L106.4 122L111.6 125.2L110.8 101.2L126.4 110.4L126.8 127.2L132 130L131.2 113.2L144 120.4L146.8 115.2L134.4 108L149.2 100L144.4 96.8L129.2 105.2L113.6 96L134.8 84.8L129.6 82L108.8 93.2L86 80L108.8 67.2L129.6 78L134.8 75.2L114 64L129.2 55.2L144.4 63.2L149.2 60L134.4 52.4L147.2 44.8L144 39.6L131.6 47.2M0 0L160 0L160 160L0 160L0 0" />
</svg>
