<?xml version="1.0" encoding="utf-8"?>
<svg xmlns="http://www.w3.org/2000/svg" xmlns:xlink="http://www.w3.org/1999/xlink" width="160px" height="160px">
  <path opacity="0" d="M160 0L160 160L85.5 160Q95.6 159.65 107.15 157.2Q137.55 150.8 139.9 100.8Q127.05 127.2 116.5 117.6Q146.5 73.6 112.65 46.4Q123.95 72.4 102.5 94.8Q97.8 3.6 56.5 0Q90.8 50.4 61.2 78.4L160 0M61.2 78.4Q40.95 75.2 47.95 41.6Q20.7 92 47.15 117.6Q28.85 117.2 20.7 96Q15.6 144 54.2 156Q64.4 159.75 76.7 160L0 160L0 0L56.5 0M64.3 133.6Q51.05 113.6 66.25 101.6Q61.2 113.2 70.55 123.2Q72.9 82.4 91.2 80.8Q76 103.2 89.25 115.6Q98.2 114.4 95.5 99.6Q107.55 121.6 95.5 133.2Q103.65 133.2 107.55 124Q109.9 145.2 92.35 150.8Q82.25 154 68.6 151.2Q54.95 148.4 53.8 126Q59.65 137.6 64.3 133.6" />
  <path fill="#F50" d="M82.65 160L76.7 160Q64.4 159.75 54.2 156Q15.6 144 20.7 96Q28.85 117.2 47.15 117.6Q20.7 92 47.95 41.6Q40.95 75.2 61.2 78.4Q90.8 50.4 56.5 0Q97.8 3.6 102.5 94.8Q123.95 72.4 112.65 46.4Q146.5 73.6 116.5 117.6Q127.05 127.2 139.9 100.8Q137.55 150.8 107.15 157.2Q95.6 159.65 85.5 160L82.65 160M53.8 126Q54.95 148.4 68.6 151.2Q82.25 154 92.35 150.8Q109.9 145.2 107.55 124Q103.65 133.2 95.5 133.2Q107.55 121.6 95.5 99.6Q98.2 114.4 89.25 115.6Q76 103.2 91.2 80.8Q72.9 82.4 70.55 123.2Q61.2 113.2 66.25 101.6Q51.05 113.6 64.3 133.6Q59.65 137.6 53.8 126" />
</svg>
