<?xml version="1.0" encoding="utf-8"?>
<svg version="1.1" id="Layer_1"
xmlns="http://www.w3.org/2000/svg"
xmlns:xlink="http://www.w3.org/1999/xlink"
width="160px" height="160px"
xml:space="preserve">
<g id="PathID_23" transform="matrix(1, 0, 0, 1, 0, 0)">
<path style="fill:#000000;fill-opacity:0.0117647" d="M128.9 92.05Q125.1 17.9 91.55 15Q119.4 55.95 95.35 78.7Q78.9 76.1 84.6 48.8Q62.45 89.75 83.95 110.55Q69.05 110.25 62.45 93Q58.3 132 89.65 141.75Q97.95 144.8 107.95 145L112.8 145L115.1 145Q123.3 144.75 132.7 142.75Q157.4 137.55 159.3 96.9Q148.85 118.35 140.3 110.55Q164.65 74.8 137.15 52.7Q146.35 73.8 128.9 92.05M21 78.4L21 118.4L51 118.4L51 78.4L73 78.4L36.85 42.25L0.7 78.4L21 78.4M133 115.75Q134.95 133 120.65 137.55Q112.45 140.15 101.35 137.85Q90.25 135.6 89.35 117.4Q94.1 126.8 97.85 123.55Q87.1 107.3 99.45 97.55Q95.35 107 102.95 115.1Q104.85 81.95 119.75 80.65Q107.4 98.85 118.15 108.95Q125.4 107.95 123.2 95.95Q133 113.8 123.2 123.25Q129.85 123.25 133 115.75M0 160L0 0L160 0L160 160L0 160" />
<path style="fill:#FF4B00;fill-opacity:1" d="M137.15 52.7Q164.65 74.8 140.3 110.55Q148.85 118.35 159.3 96.9Q157.4 137.55 132.7 142.75Q123.3 144.75 115.1 145L112.8 145L107.95 145Q97.95 144.8 89.65 141.75Q58.3 132 62.45 93Q69.05 110.25 83.95 110.55Q62.45 89.75 84.6 48.8Q78.9 76.1 95.35 78.7Q119.4 55.95 91.55 15Q125.1 17.9 128.9 92.05Q146.35 73.8 137.15 52.7M0.7 78.4L36.85 42.25L73 78.4L51 78.4L51 118.4L21 118.4L21 78.4L0.7 78.4M123.2 123.25Q133 113.8 123.2 95.95Q125.4 107.95 118.15 108.95Q107.4 98.85 119.75 80.65Q104.85 81.95 102.95 115.1Q95.35 107 99.45 97.55Q87.1 107.3 97.85 123.55Q94.1 126.8 89.35 117.4Q90.25 135.6 101.35 137.85Q112.45 140.15 120.65 137.55Q134.95 133 133 115.75Q129.85 123.25 123.2 123.25" />
</g>
</svg>
