<?xml version="1.0" encoding="utf-8"?>
<svg xmlns="http://www.w3.org/2000/svg" xmlns:xlink="http://www.w3.org/1999/xlink" width="160px" height="160px">
  <path opacity="0" d="M129.2 92Q125.6 17.6 92.8 14.8Q120 56 96.8 78.4Q80.8 76 86 48.8Q64.4 89.6 85.6 110.4Q71.2 110.4 64.8 92.8Q60.4 131.6 91.2 142Q108.8 148 132.8 142.8Q156.8 137.6 158.4 96.8Q148.8 118.4 140.4 110.4Q164 74.4 137.2 52.4Q146.4 73.6 129.2 92M26.4 86.8L26.4 110L39.2 110L39.2 86.8L62.4 86.8L62.4 74L39.2 74L39.2 51.2L26.4 51.2L26.4 74L3.6 74L3.6 86.8L26.4 86.8M133.2 115.6Q135.2 132.8 121.2 137.6Q113.2 140 102.8 138Q91.6 135.2 90.8 117.2Q95.6 126.8 99.2 123.2Q88.8 107.2 100.8 97.2Q96.8 106.8 104.4 115.2Q106 81.6 120.4 80.4Q108.4 98.8 118.8 108.8Q126 107.6 123.6 95.6Q133.6 114 124 123.2Q130.4 123.2 133.2 115.6M0 160L0 0L160 0L160 160L0 160" />
  <linearGradient id="grad" gradientUnits="userSpaceOnUse" gradientTransform="matrix(0, -0.0794678, 0.0946045, 0, 81.2, 80)" spreadMethod ="pad" x1="-819.2" y1="0" x2="819.2" y2="0" >
    <stop offset="0" style="stop-color:#F30"/>
    <stop offset="1" style="stop-color:#F60"/>
  </linearGradient>
  <path style="fill:url(#grad)" d="M137.2 52.4Q164 74.4 140.4 110.4Q148.8 118.4 158.4 96.8Q156.8 137.6 132.8 142.8Q108.8 148 91.2 142Q60.4 131.6 64.8 92.8Q71.2 110.4 85.6 110.4Q64.4 89.6 86 48.8Q80.8 76 96.8 78.4Q120 56 92.8 14.8Q125.6 17.6 129.2 92Q146.4 73.6 137.2 52.4M3.6 86.8L3.6 74L26.4 74L26.4 51.2L39.2 51.2L39.2 74L62.4 74L62.4 86.8L39.2 86.8L39.2 110L26.4 110L26.4 86.8L3.6 86.8M124 123.2Q133.6 114 123.6 95.6Q126 107.6 118.8 108.8Q108.4 98.8 120.4 80.4Q106 81.6 104.4 115.2Q96.8 106.8 100.8 97.2Q88.8 107.2 99.2 123.2Q95.6 126.8 90.8 117.2Q91.6 135.2 102.8 138Q113.2 140 121.2 137.6Q135.2 132.8 133.2 115.6Q130.4 123.2 124 123.2" />
</svg>
