<?xml version="1.0" encoding="utf-8"?>
<svg version="1.1" id="Layer_1"
xmlns="http://www.w3.org/2000/svg"
xmlns:xlink="http://www.w3.org/1999/xlink"
width="160px" height="160px"
xml:space="preserve">
<g id="PathID_26" transform="matrix(1, 0, 0, 1, 0, 0)">
<path style="fill:#000000;fill-opacity:0.0117647" d="M1.2 84.4L52.8 128.8L1.2 120.8L1.2 122.8L49.6 150.4L68.8 150.4L38.8 136L72.4 136L40.4 108L66.4 116L53.6 84.8L79.2 118.4L84.8 68.8L91.6 124L107.2 90.8L102.4 132.8L117.6 121.6L105.2 140L122.8 140L106.8 150.4L116.8 150.4L158.4 128L158.4 126.4L116 134L153.2 88.4L110 120L120.4 42.8L96 102.4L86.4 4.8L73.2 97.6L26.8 38L54.4 103.2L1.2 78.4L1.2 84.4M160 160L0 160L0 0L160 0L160 160" />
<path style="fill:#FFBB00;fill-opacity:1" d="M1.2 78.4L54.4 103.2L26.8 38L73.2 97.6L86.4 4.8L96 102.4L120.4 42.8L110 120L153.2 88.4L116 134L158.4 126.4L158.4 128L116.8 150.4L106.8 150.4L122.8 140L105.2 140L117.6 121.6L102.4 132.8L107.2 90.8L91.6 124L84.8 68.8L79.2 118.4L53.6 84.8L66.4 116L40.4 108L72.4 136L38.8 136L68.8 150.4L49.6 150.4L1.2 122.8L1.2 120.8L52.8 128.8L1.2 84.4L1.2 78.4" />
</g>
</svg>
