<?xml version="1.0" encoding="utf-8"?>
<svg xmlns="http://www.w3.org/2000/svg" xmlns:xlink="http://www.w3.org/1999/xlink" width="160px" height="160px">
  <path style="opacity:0" d="M88.8 107.2L92 111.2L105.6 128.4L108.8 132.8L126.4 120.8L155.2 52.4L155.2 32.4L110 15.2L73.6 15.2L77.6 20.8L92 38.4L118.8 72L92 103.6L88.8 107.2M50.4 15.2L4.8 32.4L4.8 52.4L33.6 120.8L68.4 144.8L85.6 132.8L82.4 128.4L68.4 110.8L65.6 107.2L68.4 104L95.2 72L68.4 38.4L54.4 20.8L50.4 15.2M0 160L0 0L160 0L160 160L0 160" />
  <path style="fill:#FB0" d="M105.6 128.4L123.2 116.4L151.2 50.4L151.2 36.8L108.4 20.8L92 20.8L77.6 20.8L73.6 15.2L110 15.2L155.2 32.4L155.2 52.4L126.4 120.8L108.8 132.8L105.6 128.4M82.4 128.4L85.6 132.8L68.4 144.8L33.6 120.8L4.8 52.4L4.8 32.4L50.4 15.2L54.4 20.8L52 20.8L9.2 36.8L9.2 50.8L36.8 116.4L68.4 138L82.4 128.4" />
  <path style="fill:#860" d="M108.4 20.8L151.2 36.8L151.2 50.4L123.2 116.4L105.6 128.4L92 111.2L92 103.6L118.8 72L92 38.4L92 20.8L108.4 20.8M68.4 38.4L95.2 72L68.4 104L68.4 38.4M68.4 138L68.4 110.8L82.4 128.4L68.4 138" />
  <path style="fill:#B27D00" d="M77.6 20.8L92 20.8L92 38.4L77.6 20.8M92 103.6L92 111.2L88.8 107.2L92 103.6M68.4 104L65.6 107.2L68.4 110.8L68.4 138L36.8 116.4L9.2 50.8L9.2 36.8L52 20.8L54.4 20.8L68.4 38.4L68.4 104" />
</svg>
