<?xml version="1.0" encoding="utf-8"?>
<svg version="1.1" id="Layer_1"
xmlns="http://www.w3.org/2000/svg"
xmlns:xlink="http://www.w3.org/1999/xlink"
width="160px" height="160px"
xml:space="preserve">
<g id="PathID_13" transform="matrix(1, 0, 0, 1, 0, 0)">
<path style="fill:#FFFFFF;fill-opacity:1" d="M140.8 18.4Q115.2 44 115.2 80Q115.2 116 140.8 141.6L145.6 146Q128.8 141.6 115.2 128.8L114.4 128Q94.4 108 94.4 80Q94.4 52 114.4 32L115.2 31.2Q128.8 18 145.6 14L140.8 18.4M100.8 18.4Q75.2 44 75.2 80Q75.2 116 100.8 141.6L105.6 146Q88.8 141.6 75.2 128.8L74.4 128Q54.4 108 54.4 80Q54.4 52 74.4 32L75.2 31.2Q88.8 18 105.6 14L100.8 18.4M60.8 18.4Q35.2 44 35.2 80Q35.2 116 60.8 141.6L65.6 146Q48.8 141.6 35.2 128.8L34.4 128Q14.4 108 14.4 80Q14.4 52 34.4 32L35.2 31.2Q48.8 18 65.6 14L60.8 18.4" />
<path style="fill:#000000;fill-opacity:0.0117647" d="M145.6 14Q128.8 18 115.2 31.2L114.4 32Q94.4 52 94.4 80Q94.4 108 114.4 128L115.2 128.8Q128.8 141.6 145.6 146L140.8 141.6Q115.2 116 115.2 80Q115.2 44 140.8 18.4L145.6 14M105.6 14Q88.8 18 75.2 31.2L74.4 32Q54.4 52 54.4 80Q54.4 108 74.4 128L75.2 128.8Q88.8 141.6 105.6 146L100.8 141.6Q75.2 116 75.2 80Q75.2 44 100.8 18.4L105.6 14M65.6 14Q48.8 18 35.2 31.2L34.4 32Q14.4 52 14.4 80Q14.4 108 34.4 128L35.2 128.8Q48.8 141.6 65.6 146L60.8 141.6Q35.2 116 35.2 80Q35.2 44 60.8 18.4L65.6 14M0 160L0 0L160 0L160 160L0 160" />
</g>
</svg>
