<?xml version="1.0" encoding="utf-8"?>
<svg xmlns="http://www.w3.org/2000/svg" xmlns:xlink="http://www.w3.org/1999/xlink" width="160px" height="160px">
  <path fill="#DDDDDD" d="M1.2 22.4Q32 14.4 62.4 34.8Q96.8 59.6 109.2 99.6L106 114L89.2 97.2Q79.6 68.4 51.6 42.4Q30.8 24.4 1.2 29.2L1.2 22.4M158.8 102.8L158.8 126L144.8 158.4L134.8 158.4L150 122L129.6 142.8L122.8 105.2L114.8 137.2L102.8 128L118.4 151.6L99.6 144.8L115.6 158.4L104.8 158.4L55.2 119.6L98.4 135.2L98.4 134.8L66.8 82.4L109.2 124.8L122.8 63.6L135.6 124.8L158.8 102.8" />
</svg>
