<?xml version="1.0" encoding="utf-8"?>
<svg version="1.1" id="Layer_1"
xmlns="http://www.w3.org/2000/svg"
xmlns:xlink="http://www.w3.org/1999/xlink"
width="160px" height="160px"
xml:space="preserve">
<g id="PathID_5" transform="matrix(1, 0, 0, 1, 0, 0)">
<radialGradient
id="RadialGradID_1" gradientUnits="userSpaceOnUse" gradientTransform="matrix(0.192596, 0, 0, 0.192596, 28.45, 21.8)" spreadMethod ="pad" cx="0" cy="0" r="819.2" fx="0" fy="0" >
<stop  offset="0"  style="stop-color:#8CFE8B;stop-opacity:1" />
<stop  offset="0.592157"  style="stop-color:#00CC00;stop-opacity:1" />
<stop  offset="1"  style="stop-color:#005500;stop-opacity:1" />
</radialGradient>
<path style="fill:url(#RadialGradID_1) " d="M132 27.55Q118.65 14.2 101.35 9.35Q91.55 6.2 80 6.2Q49.35 6.2 27.55 27.55Q6.25 49.35 6.25 80Q6.25 110.65 27.55 132.45L32 136.45Q52.45 153.8 80 153.8Q91.1 153.8 100.9 151.1Q118.65 146.2 132 132.45Q153.8 110.65 153.8 80Q153.8 55.1 139.55 36Q136 31.55 132 27.55M160 82.1Q159.25 114.05 136.45 136.45Q127.55 145.35 117.35 151.1Q101.95 159.45 82.6 160L80 160L77.9 160Q62.2 159.6 48.45 153.8Q34.65 148 23.1 136.45Q0.7 114.05 0 82.1L0 77.95Q0.7 45.9 23.1 23.1Q45.9 0.7 77.95 0L80 0L82.6 0.05Q101.95 0.6 117.8 9.35Q128 14.65 136.45 23.1Q150.25 36.9 155.55 53.8Q159.7 65.45 160 78.3L160 82.1" />
<path style="fill:#090;fill-opacity:1" d="M121.8 38.2Q111.1 27.1 97.35 23.1Q89.35 20.9 80 20.9Q55.55 20.9 37.8 38.2Q20.9 55.55 20.9 80Q20.9 104.9 37.8 122.2L41.35 125.35Q57.8 139.55 80 139.55Q88.9 139.55 96.9 137.35Q111.1 133.35 121.8 122.2Q139.55 104.9 139.55 80Q139.55 60 127.55 44.9L121.8 38.2M139.55 36Q153.8 55.1 153.8 80Q153.8 110.65 132 132.45Q118.65 146.2 100.9 151.1Q91.1 153.8 80 153.8Q52.45 153.8 32 136.45L27.55 132.45Q6.25 110.65 6.25 80Q6.25 49.35 27.55 27.55Q49.35 6.2 80 6.2Q91.55 6.2 101.35 9.35Q118.65 14.2 132 27.55Q136 31.55 139.55 36" />
<radialGradient
id="RadialGradID_2" gradientUnits="userSpaceOnUse" gradientTransform="matrix(0.140793, 0, 0, 0.140793, 114.65, 122.65)" spreadMethod ="pad" cx="0" cy="0" r="819.2" fx="0" fy="0" >
<stop  offset="0"  style="stop-color:#8CFE8B;stop-opacity:1" />
<stop  offset="0.592157"  style="stop-color:#00CC00;stop-opacity:1" />
<stop  offset="1"  style="stop-color:#005500;stop-opacity:1" />
</radialGradient>
<path style="fill:url(#RadialGradID_2) " d="M127.55 44.9Q139.55 60 139.55 80Q139.55 104.9 121.8 122.2Q111.1 133.35 96.9 137.35Q88.9 139.55 80 139.55Q57.8 139.55 41.35 125.35L37.8 122.2Q20.9 104.9 20.9 80Q20.9 55.55 37.8 38.2Q55.55 20.9 80 20.9Q89.35 20.9 97.35 23.1Q111.1 27.1 121.8 38.2L127.55 44.9M95.55 29.35Q88 27.55 80 27.55Q58.25 27.55 42.65 42.65Q27.1 58.2 27.1 80Q27.1 102.2 42.65 117.35L45.8 120.45Q60.45 132.9 80 132.9Q88 132.9 95.1 130.65Q107.55 127.1 117.35 117.35Q132.9 102.2 132.9 80Q132.9 62.2 122.65 48.45L117.35 42.65Q107.55 32.9 95.55 29.35" />
<radialGradient
id="RadialGradID_3" gradientUnits="userSpaceOnUse" gradientTransform="matrix(0.067276, 0, 0, 0.067276, 80.45, 81.35)" spreadMethod ="pad" cx="0" cy="0" r="819.2" fx="0" fy="0" >
<stop  offset="0.431373"  style="stop-color:#8CFE8B;stop-opacity:1" />
<stop  offset="1"  style="stop-color:#00CC00;stop-opacity:1" />
</radialGradient>
<path style="fill:url(#RadialGradID_3) " d="M117.35 42.65L122.65 48.45Q132.9 62.2 132.9 80Q132.9 102.2 117.35 117.35Q107.55 127.1 95.1 130.65Q88 132.9 80 132.9Q60.45 132.9 45.8 120.45L42.65 117.35Q27.1 102.2 27.1 80Q27.1 58.2 42.65 42.65Q58.25 27.55 80 27.55Q88 27.55 95.55 29.35Q107.55 32.9 117.35 42.65" />
<path style="fill:#000000;fill-opacity:0.01" d="M160 0L160 78.3Q159.7 65.45 155.55 53.8Q150.25 36.9 136.45 23.1Q128 14.65 117.8 9.35Q101.95 0.6 82.6 0.05L160 0M77.95 0Q45.9 0.7 23.1 23.1Q0.7 45.9 0 77.95L0 0L77.95 0M0 82.1Q0.7 114.05 23.1 136.45Q34.65 148 48.45 153.8Q62.2 159.6 77.9 160L0 160L0 82.1M82.6 160Q101.95 159.45 117.35 151.1Q127.55 145.35 136.45 136.45Q159.25 114.05 160 82.1L160 160L82.6 160" />
</g>
</svg>
