<?xml version="1.0" encoding="utf-8"?>
<svg xmlns="http://www.w3.org/2000/svg" xmlns:xlink="http://www.w3.org/1999/xlink" width="160px" height="160px">
  <path fill="#DDD" d="M100 31.1Q100 37.85 96 43.45L132 43.45L160 149.15L0 149.15L28 43.45L64 43.45Q59.95 38.3 59.65 32.2L59.6 31.1Q59.6 22.4 65.6 16.8Q68.6 13.8 72.25 12.3Q75.6 10.95 79.5 10.85L80.5 10.85Q87.8 11 93.25 15.75L94.4 16.8Q96.85 19.25 98.25 22.3Q100 26.2 100 31.1M87.6 23.15L87.25 22.9Q83.8 20.4 80 20.4Q76 20.4 72.8 23.15Q69.6 26.75 69.6 31.1Q69.6 35.5 72.8 38.25Q76 41.45 80 41.45Q82.1 41.45 84.1 40.6L87.6 38.25Q90.8 35.5 90.8 31.1Q90.8 26.75 87.6 23.15M114.4 72.45L106.4 71.65Q102.4 71.65 98 73.25Q96.8 73.8 95.7 74.45Q92.8 76.25 90.8 78.8L88.8 81.1Q86.95 83.6 85.6 86.75L85.05 88.65Q84 92.85 84 98.3Q84 110.2 88.8 116.55Q94.4 123.7 103.6 123.7Q109.6 123.7 113.2 122.55Q116.8 120.95 120.4 117.35L120.4 122.55Q120.4 125.7 119.6 128.1L117.6 132.85Q116 134.05 113.2 135.25Q110.4 136.45 105.6 136.45L96.4 135.25L89.6 132.85L88.8 132.85L88.8 142L104.8 144.4Q117.2 144.4 123.6 138.45Q128.8 131.65 128.8 118.95L128.8 72.85L121.2 72.85L120.4 75.25L116.35 73.2L114.4 72.45M98.15 82.9Q101.95 79.2 108 79.2L114 80Q115.9 80.5 118.2 81.45L120.4 82.4L120.4 110.2Q117.2 112.6 113.6 114.2Q109.6 115.8 106 115.8Q98.8 115.8 95.6 111.8Q92.4 106.6 92.4 98.3Q92.4 92.6 94.1 88.65Q95.1 86.2 96.8 84.35L98.15 82.9M43.6 52.6L34.4 52.6L34.4 124.5L43.6 124.5L43.6 107.4L48.8 102.25L69.6 124.5L81.2 124.5L55.6 96.7L79.6 72.85L68.8 72.85L43.6 98.65L43.6 52.6" />
  <path opacity="0" d="M98.25 22.3Q96.85 19.25 94.4 16.8L93.25 15.75Q87.8 11 80.5 10.85L79.5 10.85Q75.6 10.95 72.25 12.3Q68.6 13.8 65.6 16.8Q59.6 22.4 59.6 31.1L59.65 32.2Q59.95 38.3 64 43.45L28 43.45L0 149.15L0 0L160 149.15L160 160L132 43.45L96 43.45Q100 37.85 100 31.1Q100 26.2 98.25 22.3M90.8 31.1Q90.8 35.5 87.6 38.25L84.1 40.6Q82.1 41.45 80 41.45Q76 41.45 72.8 38.25Q69.6 35.5 69.6 31.1Q69.6 26.75 72.8 23.15Q76 20.4 80 20.4Q83.8 20.4 87.25 22.9L87.6 23.15Q90.8 26.75 90.8 31.1M116.35 73.2L120.4 75.25L121.2 72.85L128.8 72.85L128.8 118.95Q128.8 131.65 123.6 138.45Q117.2 144.4 104.8 144.4L88.8 142L88.8 132.85L89.6 132.85L96.4 135.25L105.6 136.45Q110.4 136.45 113.2 135.25Q116 134.05 117.6 132.85L119.6 128.1Q120.4 125.7 120.4 122.55L120.4 117.35Q116.8 120.95 113.2 122.55Q109.6 123.7 103.6 123.7Q94.4 123.7 88.8 116.55Q84 110.2 84 98.3Q84 92.85 85.05 88.65L85.6 86.75Q86.95 83.6 88.8 81.1L90.8 78.8Q92.8 76.25 95.7 74.45Q96.8 73.8 98 73.25Q102.4 71.65 106.4 71.65L114.4 72.45L116.35 73.2M96.8 84.35Q95.1 86.2 94.1 88.65Q92.4 92.6 92.4 98.3Q92.4 106.6 95.6 111.8Q98.8 115.8 106 115.8Q109.6 115.8 113.6 114.2Q117.2 112.6 120.4 110.2L120.4 82.4L118.2 81.45Q115.9 80.5 114 80L108 79.2Q101.95 79.2 98.15 82.9L96.8 84.35M43.6 98.65L68.8 72.85L79.6 72.85L55.6 96.7L81.2 124.5L69.6 124.5L48.8 102.25L43.6 107.4L43.6 124.5L34.4 124.5L34.4 52.6L43.6 52.6L43.6 98.65M0 0L160 0L160 149.15M160 160L0 160L0 149.15" />
</svg>
